PathFileType	4	(X/Y/Z)	/Users/itak/Documents/Research/Walk-IL/dataset/trc/00094_00006.trc
DataRate	CameraRate	NumFrames	NumMarkers	Units	OrigDataRate	OrigDataStartFrame	OrigNumFrames
100.000000	100.000000	4	53	mm	100.000000	328	525
Frame#	Time	RPSI			LPSI			L3			STRN			T10			C7			CLAV			RBAK			LBAK			LSHO			LUPA			LAEL			LAOL			LWTS			LWPS			LFRA			LIFD			LHPS			LHTS			RSHO			RUPA			RAEL			RAOL			RWTS			RWPS			RFRA			RIFD			RHTS			RHPS			RBHD			LFHD			RFHD			LBHD			LHIP			RHIP			RASI			LASI			LKNE			LTHI			LANK			LTIP			LTOE			LMT1			LMT5			LHEE			RKNE			RTHI			RANK			RTIP			RTOE			RMT1			RMT5			RHEE			
		X1	Y1	Z1	X2	Y2	Z2	X3	Y3	Z3	X4	Y4	Z4	X5	Y5	Z5	X6	Y6	Z6	X7	Y7	Z7	X8	Y8	Z8	X9	Y9	Z9	X10	Y10	Z10	X11	Y11	Z11	X12	Y12	Z12	X13	Y13	Z13	X14	Y14	Z14	X15	Y15	Z15	X16	Y16	Z16	X17	Y17	Z17	X18	Y18	Z18	X19	Y19	Z19	X20	Y20	Z20	X21	Y21	Z21	X22	Y22	Z22	X23	Y23	Z23	X24	Y24	Z24	X25	Y25	Z25	X26	Y26	Z26	X27	Y27	Z27	X28	Y28	Z28	X29	Y29	Z29	X30	Y30	Z30	X31	Y31	Z31	X32	Y32	Z32	X33	Y33	Z33	X34	Y34	Z34	X35	Y35	Z35	X36	Y36	Z36	X37	Y37	Z37	X38	Y38	Z38	X39	Y39	Z39	X40	Y40	Z40	X41	Y41	Z41	X42	Y42	Z42	X43	Y43	Z43	X44	Y44	Z44	X45	Y45	Z45	X46	Y46	Z46	X47	Y47	Z47	X48	Y48	Z48	X49	Y49	Z49	X50	Y50	Z50	X51	Y51	Z51	X52	Y52	Z52	X53	Y53	Z53	

329	3.28	-268.34375	1016.010314941406	462.0620422363281	-128.3649139404297	1008.118041992188	361.1593627929688	-187.6992340087891	1068.183959960938	407.547607421875	-59.56208038330078	1262.196166992188	624.3447875976562	-180.8864440917969	1198.712036132812	383.3844909667969	-148.1515808105469	1465.19384765625	436.9494018554688	-72.30770874023438	1377.028076171875	598.003662109375	-245.2694244384766	1328.337890625	410.6280212402344	-65.84592437744141	1428.35888671875	371.4404907226562	43.06502914428711	1431.381958007812	434.4623413085938	108.1724166870117	1305.1220703125	389.3512878417969	158.4195709228516	1097.67236328125	408.9835815429688	55.15142822265625	1068.154541015625	399.2072448730469	181.8072967529297	880.0843505859375	553.9945678710938	201.5913696289062	857.093017578125	474.9790954589844	188.2591094970703	994.0410766601562	436.8216247558594	196.157470703125	704.6092529296875	608.8250732421875	226.4292602539062	786.468994140625	519.06494140625	209.1359710693359	806.6286010742188	585.3239135742188	-278.1805114746094	1424.20849609375	571.530029296875	-339.9499816894531	1353.807983398438	586.3001098632812	-382.3475952148438	1091.154296875	560.0289916992188	-284.7036743164062	1067.26953125	538.6878051757812	-304.524658203125	831.6001586914062	664.3990478515625	-378.7136840820312	823.1771240234375	619.1293334960938	-385.5631408691406	1012.869995117188	571.7406616210938	-296.5801086425781	644.3237915039062	645.30517578125	-301.0191040039062	728.991943359375	679.7990112304688	-372.8232421875	731.4797973632812	648.8988037109375	-190.314453125	1622.471557617188	483.4921569824219	-40.30955123901367	1687.8330078125	633.7932739257812	-163.5093231201172	1667.805053710938	647.0180053710938	-57.44461441040039	1650.878540039062	459.6188049316406	3.55694580078125	941.108642578125	393.5736083984375	-297.5360717773438	948.0488891601562	562.9429321289062	-208.0997161865234	962.50390625	653.6797485351562	21.83529090881348	947.065185546875	517.1500244140625	-49.21270751953125	474.8900451660156	445.1946411132812	-20.9881534576416	618.9449462890625	414.2322998046875	-210.9438171386719	65.0689697265625	236.1885223388672	-124.7285919189453	264.0924682617188	320.1448669433594	-96.61395263671875	41.47856140136719	399.8660583496094	-164.3925476074219	45.78038024902344	394.4216613769531	-122.574104309082	32.82931518554688	289.8701782226562	-300.2878723144531	89.35012054443359	244.2190246582031	-144.6854705810547	514.595947265625	693.8633422851562	-229.2305755615234	775.68896484375	664.421630859375	-89.06510162353516	34.93428802490234	654.0986328125	-135.4901733398438	387.5162353515625	692.5772705078125	21.2430591583252	64.00973510742188	836.3422241210938	36.55468368530273	57.74701309204102	770.033935546875	-62.1207160949707	53.26914978027344	772.1867065429688	-50.5800895690918	36.6888542175293	592.373046875	
330	3.29	-263.4410705566406	1016.878601074219	468.2654113769531	-123.1502456665039	1008.47802734375	368.0261840820312	-182.9177856445312	1068.81103515625	414.0935668945312	-56.26791000366211	1263.08349609375	631.728271484375	-176.2801361083984	1199.426635742188	389.9379577636719	-144.216796875	1465.8974609375	443.8551330566406	-68.98612213134766	1377.908935546875	605.2628784179688	-241.1142120361328	1328.900268554688	417.0616760253906	-61.63074111938477	1429.303588867188	378.7048950195312	47.05204772949219	1432.377685546875	442.2188415527344	111.9660797119141	1306.041625976562	396.8747253417969	160.4280548095703	1098.136108398438	414.800048828125	56.94985198974609	1069.438232421875	405.2191467285156	182.9121246337891	879.259033203125	557.952392578125	202.1831359863281	856.7329711914062	478.671142578125	189.6540222167969	994.0951538085938	441.6793823242188	196.3249664306641	703.2766723632812	611.321533203125	226.7316436767578	785.607177734375	522.0862426757812	209.8548889160156	805.3636474609375	588.5714721679688	-274.8786010742188	1424.790771484375	577.7568359375	-336.5703125	1354.184692382812	592.5117797851562	-377.7339172363281	1091.100219726562	567.181884765625	-279.7830505371094	1067.576416015625	546.12744140625	-299.3291320800781	832.1471557617188	672.5569458007812	-373.3606262207031	823.5020141601562	627.27685546875	-380.500732421875	1012.953918457031	579.2405395507812	-290.9294738769531	644.8513793945312	654.3259887695312	-295.5937194824219	729.5477905273438	688.49951171875	-367.3216247558594	731.9241333007812	657.4457397460938	-186.9830017089844	1623.075439453125	490.123291015625	-37.48298645019531	1688.774291992188	640.8118896484375	-160.7312164306641	1668.66259765625	653.6630249023438	-53.99770355224609	1651.54052734375	466.6455078125	8.550690650939941	941.5529174804688	401.3302612304688	-293.5724487304688	949.1433715820312	568.8471069335938	-204.8173980712891	963.5578002929688	660.159423828125	26.01839637756348	947.7716674804688	525.073974609375	-41.93191528320312	474.161865234375	455.0154418945312	-14.59255790710449	618.8333129882812	423.6738891601562	-208.4331817626953	69.50658416748047	236.7864837646484	-119.7825622558594	266.4158630371094	325.0309448242188	-96.73615264892578	41.5169563293457	399.7077941894531	-163.9222869873047	46.08183288574219	394.6405029296875	-121.7131881713867	33.38637542724609	290.3289184570312	-297.1108703613281	96.18512725830078	245.1107788085938	-141.3141174316406	515.39306640625	699.69140625	-225.1755065917969	776.681396484375	670.6044311523438	-88.92479705810547	35.17124176025391	654.7307739257812	-132.6233520507812	387.7953491210938	697.57373046875	22.90452766418457	60.50021743774414	837.3594970703125	37.38140869140625	55.59115982055664	770.6161499023438	-61.240234375	52.67601776123047	772.92138671875	-50.86898422241211	37.17874145507812	592.7342529296875	
331	3.3	-258.7546997070312	1017.765930175781	474.5512390136719	-118.108757019043	1008.956481933594	374.9646606445312	-178.3295745849609	1069.566650390625	420.654541015625	-53.01250457763672	1264.147094726562	639.0977783203125	-171.7703094482422	1200.207885742188	396.6078491210938	-140.3568572998047	1466.684692382812	450.7089538574219	-65.69828796386719	1378.95703125	612.4699096679688	-237.0530242919922	1329.538330078125	423.5455017089844	-57.51348495483398	1430.326293945312	385.9208984375	50.94611740112305	1433.528198242188	449.8799743652344	115.706916809082	1307.17822265625	404.283203125	162.3073883056641	1098.778442382812	420.4691162109375	58.63690948486328	1070.958251953125	411.0927429199219	183.7763366699219	878.549072265625	561.6845092773438	202.5449066162109	856.5293579101562	482.1480102539062	190.8861541748047	994.3155517578125	446.3497924804688	196.0452575683594	702.0068969726562	613.4592895507812	226.7311553955078	784.8517456054688	524.8407592773438	210.2457733154297	804.1484375	591.5477294921875	-271.6173095703125	1425.607421875	583.96142578125	-333.2515563964844	1354.835083007812	598.7434692382812	-373.1123046875	1091.3408203125	574.37548828125	-274.8299255371094	1068.170166015625	553.6720581054688	-294.1779479980469	833.044921875	680.9385375976562	-367.9916076660156	824.1401977539062	635.6085205078125	-375.4487915039062	1013.303833007812	586.8023071289062	-285.2483520507812	645.7079467773438	663.621337890625	-290.1580810546875	730.4141845703125	697.4363403320312	-361.8078918457031	732.6957397460938	666.2144775390625	-183.7177734375	1623.839477539062	496.7212219238281	-34.68021011352539	1689.784423828125	647.8328857421875	-157.9821319580078	1669.606811523438	660.3013305664062	-50.59521865844727	1652.34912109375	473.6542358398438	13.41167640686035	942.2037963867188	409.2210693359375	-289.7320861816406	950.1959838867188	574.8111572265625	-201.6334228515625	964.63330078125	666.7088623046875	30.08292579650879	948.6895141601562	533.0671997070312	-33.68849563598633	473.4671020507812	465.7126159667969	-7.602246761322021	618.8057861328125	433.8152770996094	-205.353515625	74.62654876708984	237.6802062988281	-114.050163269043	269.1112060546875	330.5577697753906	-96.89711761474609	41.52161407470703	399.4605407714844	-163.3330383300781	46.46085739135742	394.9319763183594	-120.6561813354492	34.08959197998047	290.8724060058594	-293.1656799316406	103.9598388671875	246.4453430175781	-138.1206359863281	515.9853515625	704.9036254882812	-221.3920288085938	777.426513671875	676.5678100585938	-88.66199493408203	35.42386245727539	655.322998046875	-129.8784484863281	387.9778747558594	702.0205688476562	24.4709415435791	57.30712127685547	838.3442993164062	38.15676116943359	53.6827507019043	771.1742553710938	-60.33977890014648	52.24723815917969	773.6067504882812	-51.02927780151367	37.58025741577148	593.0524291992188	
332	3.31	-254.2924041748047	1018.653564453125	480.9105529785156	-113.2474136352539	1009.507019042969	381.9500732421875	-173.9619140625	1070.384399414062	427.2478637695312	-49.79358673095703	1265.3291015625	646.4326171875	-167.3971252441406	1201.010375976562	403.405517578125	-136.5919494628906	1467.510498046875	457.5028381347656	-62.44452667236328	1380.114135742188	619.6112670898438	-233.1110382080078	1330.2119140625	430.0861206054688	-53.52558135986328	1431.367553710938	393.0695190429688	54.73216247558594	1434.763549804688	457.4123229980469	119.3675842285156	1308.459716796875	411.5339965820312	164.0992126464844	1099.53662109375	425.9911804199219	60.25154113769531	1072.634155273438	416.8059387207031	184.4308013916016	877.919189453125	565.2283935546875	202.7305908203125	856.4387817382812	485.4542846679688	192.0013580322266	994.6486206054688	450.8543395996094	195.3109436035156	700.767578125	615.2907104492188	226.4619140625	784.1652221679688	527.3841552734375	210.3284149169922	802.9522094726562	594.3057861328125	-268.4058532714844	1426.603881835938	590.1532592773438	-329.9959106445312	1355.706787109375	605.005859375	-368.5179748535156	1091.828979492188	581.5973510742188	-269.8932189941406	1068.998413085938	561.3055419921875	-289.0417785644531	834.2652587890625	689.5504760742188	-362.5984191894531	825.0300903320312	644.1135864257812	-370.4500732421875	1013.862182617188	594.4063720703125	-279.4993591308594	646.8666381835938	673.1968994140625	-284.689453125	731.5840454101562	706.610107421875	-356.2737121582031	733.7442626953125	675.1882934570312	-180.5116424560547	1624.724731445312	503.2670593261719	-31.89916610717773	1690.818481445312	654.8394775390625	-155.2565612792969	1670.592895507812	666.91455078125	-47.23877716064453	1653.265380859375	480.6264953613281	18.13461303710938	943	417.2102966308594	-286.0325622558594	951.1664428710938	580.8087768554688	-198.5472259521484	965.671142578125	673.303955078125	34.00617599487305	949.7514038085938	541.0897216796875	-24.5261344909668	472.8232116699219	477.2587585449219	0.0001459351187804714	618.8419799804688	444.6353454589844	-201.6363220214844	80.45562744140625	238.9490661621094	-107.4908752441406	272.1741638183594	336.7831115722656	-97.06024169921875	41.45597457885742	399.1458435058594	-162.5744018554688	46.94671249389648	395.3209533691406	-119.365348815918	34.9947624206543	291.5355529785156	-288.3603210449219	112.656852722168	248.3236389160156	-135.1338348388672	516.3245849609375	709.435546875	-217.9036560058594	777.8853149414062	682.2665405273438	-88.28707122802734	35.69387435913086	655.8425903320312	-127.3063507080078	388.0340881347656	705.8580322265625	25.93724060058594	54.39619445800781	839.2831420898438	38.90847396850586	51.9705696105957	771.7069091796875	-59.41919708251953	51.92847061157227	774.2318725585938	-51.04330062866211	37.90038299560547	593.3175048828125	
